<?xml version="1.0" encoding="UTF-8"?>
<svg xmlns="http://www.w3.org/2000/svg" xmlns:xlink="http://www.w3.org/1999/xlink" width="64px" height="64px" viewBox="0 0 64 64" version="1.1">
<g id="surface1">
<path style=" stroke:none;fill-rule:nonzero;fill:rgb(9.411765%,46.666667%,94.901961%);fill-opacity:1;" d="M 64 32 C 64 14.328125 49.671875 0 32 0 C 14.328125 0 0 14.328125 0 32 C 0 47.972656 11.703125 61.210938 27 63.609375 L 27 41.25 L 18.875 41.25 L 18.875 32 L 27 32 L 27 24.949219 C 27 16.929688 31.777344 12.5 39.085938 12.5 C 42.585938 12.5 46.25 13.132812 46.25 13.132812 L 46.25 21.007812 L 42.214844 21.007812 C 38.238281 21.007812 37 23.472656 37 26.003906 L 37 32.007812 L 45.875 32.007812 L 44.457031 41.257812 L 36.996094 41.257812 L 36.996094 63.609375 C 52.296875 61.210938 64 47.972656 64 32 Z M 64 32 "/>
<path style=" stroke:none;fill-rule:nonzero;fill:rgb(100%,100%,100%);fill-opacity:1;" d="M 44.457031 41.25 L 45.875 32 L 36.996094 32 L 36.996094 25.996094 C 36.996094 23.472656 38.234375 21 42.210938 21 L 46.246094 21 L 46.246094 13.132812 C 46.246094 13.132812 42.582031 12.5 39.082031 12.5 C 31.773438 12.5 26.996094 16.929688 26.996094 24.949219 L 26.996094 32 L 18.875 32 L 18.875 41.25 L 27 41.25 L 27 63.609375 C 30.3125 64.128906 33.6875 64.128906 37 63.609375 L 37 41.25 Z M 44.457031 41.25 "/>
</g>
</svg>
