<?xml version="1.0" encoding="UTF-8"?>
<svg xmlns="http://www.w3.org/2000/svg" xmlns:xlink="http://www.w3.org/1999/xlink" width="64px" height="64px" viewBox="0 0 64 66" version="1.1">
<g id="surface1">
<path style=" stroke:none;fill-rule:nonzero;fill:rgb(0%,0%,0%);fill-opacity:1;" d="M 21.40625 51.226562 C 21.40625 51.484375 21.109375 51.691406 20.734375 51.691406 C 20.308594 51.730469 20.011719 51.523438 20.011719 51.226562 C 20.011719 50.96875 20.308594 50.761719 20.683594 50.761719 C 21.070312 50.722656 21.40625 50.929688 21.40625 51.226562 Z M 17.394531 50.648438 C 17.304688 50.90625 17.5625 51.203125 17.949219 51.277344 C 18.285156 51.40625 18.671875 51.277344 18.75 51.019531 C 18.824219 50.761719 18.582031 50.464844 18.195312 50.351562 C 17.859375 50.261719 17.484375 50.390625 17.394531 50.648438 Z M 23.097656 50.429688 C 22.722656 50.519531 22.464844 50.761719 22.503906 51.058594 C 22.542969 51.316406 22.878906 51.484375 23.265625 51.394531 C 23.640625 51.304688 23.898438 51.058594 23.859375 50.800781 C 23.820312 50.558594 23.472656 50.390625 23.097656 50.429688 Z M 31.585938 1.03125 C 13.691406 1.03125 0 14.605469 0 32.484375 C 0 46.78125 9.007812 59.011719 21.871094 63.320312 C 23.523438 63.617188 24.101562 62.597656 24.101562 61.757812 C 24.101562 60.960938 24.066406 56.550781 24.066406 53.84375 C 24.066406 53.84375 15.03125 55.777344 13.136719 50.003906 C 13.136719 50.003906 11.664062 46.25 9.546875 45.285156 C 9.546875 45.285156 6.59375 43.261719 9.753906 43.300781 C 9.753906 43.300781 12.96875 43.558594 14.734375 46.625 C 17.5625 51.601562 22.296875 50.171875 24.140625 49.320312 C 24.4375 47.257812 25.277344 45.824219 26.207031 44.976562 C 18.992188 44.175781 11.714844 43.132812 11.714844 30.730469 C 11.714844 27.1875 12.695312 25.40625 14.761719 23.136719 C 14.425781 22.300781 13.328125 18.847656 15.097656 14.386719 C 17.792969 13.546875 24 17.867188 24 17.867188 C 26.582031 17.144531 29.355469 16.769531 32.101562 16.769531 C 34.851562 16.769531 37.625 17.144531 40.207031 17.867188 C 40.207031 17.867188 46.414062 13.535156 49.109375 14.386719 C 50.878906 18.859375 49.78125 22.300781 49.445312 23.136719 C 51.507812 25.421875 52.773438 27.199219 52.773438 30.730469 C 52.773438 43.171875 45.175781 44.164062 37.960938 44.976562 C 39.148438 45.992188 40.15625 47.925781 40.15625 50.957031 C 40.15625 55.300781 40.117188 60.675781 40.117188 61.734375 C 40.117188 62.570312 40.710938 63.589844 42.347656 63.292969 C 55.25 59.011719 64 46.78125 64 32.484375 C 64 14.605469 49.484375 1.03125 31.585938 1.03125 Z M 12.542969 45.492188 C 12.375 45.621094 12.414062 45.917969 12.632812 46.160156 C 12.839844 46.367188 13.136719 46.457031 13.304688 46.289062 C 13.472656 46.160156 13.433594 45.863281 13.214844 45.621094 C 13.007812 45.414062 12.710938 45.324219 12.542969 45.492188 Z M 11.148438 44.445312 C 11.058594 44.613281 11.1875 44.820312 11.445312 44.949219 C 11.652344 45.078125 11.910156 45.039062 12 44.859375 C 12.089844 44.691406 11.960938 44.484375 11.703125 44.355469 C 11.445312 44.277344 11.238281 44.316406 11.148438 44.445312 Z M 15.328125 49.035156 C 15.121094 49.203125 15.199219 49.589844 15.496094 49.835938 C 15.792969 50.132812 16.167969 50.171875 16.335938 49.964844 C 16.503906 49.796875 16.425781 49.410156 16.167969 49.164062 C 15.882812 48.867188 15.496094 48.828125 15.328125 49.035156 Z M 13.859375 47.140625 C 13.652344 47.269531 13.652344 47.605469 13.859375 47.902344 C 14.066406 48.199219 14.414062 48.328125 14.582031 48.199219 C 14.785156 48.03125 14.785156 47.695312 14.582031 47.398438 C 14.398438 47.101562 14.066406 46.972656 13.859375 47.140625 Z M 13.859375 47.140625 "/>
</g>
</svg>
