<?xml version="1.0" encoding="UTF-8"?>
<svg xmlns="http://www.w3.org/2000/svg" xmlns:xlink="http://www.w3.org/1999/xlink" width="64px" height="64px" viewBox="0 0 64 64" version="1.1">
<g id="surface1">
<path style=" stroke:none;fill-rule:evenodd;fill:rgb(10.588235%,12.156863%,13.72549%);fill-opacity:1;" d="M 32 0 C 14.320312 0 0 14.320312 0 32 C 0 46.160156 9.160156 58.121094 21.878906 62.359375 C 23.480469 62.640625 24.078125 61.679688 24.078125 60.839844 C 24.078125 60.078125 24.039062 57.558594 24.039062 54.878906 C 16 56.359375 13.921875 52.921875 13.28125 51.121094 C 12.921875 50.199219 11.359375 47.359375 10 46.601562 C 8.878906 46 7.28125 44.519531 9.960938 44.480469 C 12.480469 44.441406 14.28125 46.800781 14.878906 47.761719 C 17.761719 52.601562 22.359375 51.238281 24.199219 50.398438 C 24.480469 48.320312 25.320312 46.921875 26.238281 46.121094 C 19.121094 45.320312 11.679688 42.558594 11.679688 30.320312 C 11.679688 26.839844 12.921875 23.960938 14.960938 21.71875 C 14.640625 20.921875 13.519531 17.640625 15.28125 13.238281 C 15.28125 13.238281 17.960938 12.398438 24.078125 16.519531 C 26.640625 15.800781 29.359375 15.441406 32.078125 15.441406 C 34.800781 15.441406 37.519531 15.800781 40.078125 16.519531 C 46.199219 12.359375 48.878906 13.238281 48.878906 13.238281 C 50.640625 17.640625 49.519531 20.921875 49.199219 21.71875 C 51.238281 23.960938 52.480469 26.800781 52.480469 30.320312 C 52.480469 42.601562 45 45.320312 37.878906 46.121094 C 39.039062 47.121094 40.039062 49.039062 40.039062 52.039062 C 40.039062 56.320312 40 59.761719 40 60.839844 C 40 61.679688 40.601562 62.679688 42.199219 62.359375 C 54.839844 58.121094 64 46.121094 64 32 C 64 14.320312 49.679688 0 32 0 Z M 32 0 "/>
</g>
</svg>
