<?xml version="1.0" encoding="UTF-8"?>
<svg xmlns="http://www.w3.org/2000/svg" xmlns:xlink="http://www.w3.org/1999/xlink" width="64px" height="64px" viewBox="0 0 64 45" version="1.1">
<g id="surface1">
<path style=" stroke:none;fill-rule:nonzero;fill:rgb(50.588235%,50.588235%,50.588235%);fill-opacity:1;" d="M 58.738281 8.003906 L 58.738281 12.402344 L 46.261719 21.84375 L 46.261719 6.117188 C 47.441406 5.230469 49.089844 4.007812 50.367188 3.0625 C 52.242188 1.667969 54.886719 1.722656 56.625 3.28125 C 57.921875 4.449219 58.738281 6.132812 58.738281 8.003906 Z M 58.738281 8.003906 "/>
<path style=" stroke:none;fill-rule:nonzero;fill:rgb(43.137255%,43.137255%,43.137255%);fill-opacity:1;" d="M 58.738281 12.402344 L 58.738281 39.195312 C 58.738281 41.242188 57.058594 42.902344 54.992188 42.902344 L 46.257812 42.902344 L 46.257812 21.84375 Z M 58.738281 12.402344 "/>
<path style=" stroke:none;fill-rule:nonzero;fill:rgb(56.862745%,56.862745%,56.862745%);fill-opacity:1;" d="M 46.257812 6.117188 L 46.257812 21.84375 L 31.292969 33.167969 L 16.324219 21.84375 L 16.324219 6.117188 L 31.292969 17.355469 Z M 46.257812 6.117188 "/>
<path style=" stroke:none;fill-rule:nonzero;fill:rgb(45.098039%,45.098039%,45.098039%);fill-opacity:1;" d="M 16.324219 6.117188 L 16.324219 21.84375 L 3.84375 12.402344 L 3.84375 8.003906 C 3.84375 6.132812 4.660156 4.449219 5.957031 3.277344 C 7.699219 1.722656 10.339844 1.667969 12.21875 3.0625 C 13.492188 4.003906 15.140625 5.230469 16.324219 6.117188 Z M 16.324219 6.117188 "/>
<path style=" stroke:none;fill-rule:nonzero;fill:rgb(61.176471%,61.176471%,61.176471%);fill-opacity:1;" d="M 16.324219 21.84375 L 16.324219 42.898438 L 7.589844 42.898438 C 5.519531 42.898438 3.84375 41.238281 3.84375 39.191406 L 3.84375 12.398438 Z M 16.324219 21.84375 "/>
</g>
</svg>
