<?xml version="1.0" encoding="UTF-8"?>
<svg xmlns="http://www.w3.org/2000/svg" xmlns:xlink="http://www.w3.org/1999/xlink" width="64px" height="64px" viewBox="0 0 64 64" version="1.1">
<g id="surface1">
<path style=" stroke:none;fill-rule:nonzero;fill:rgb(0%,40%,60%);fill-opacity:1;" d="M 0.492188 5.003906 C 0.492188 2.511719 2.578125 0.492188 5.148438 0.492188 L 58.851562 0.492188 C 61.421875 0.492188 63.507812 2.511719 63.507812 5.003906 L 63.507812 58.996094 C 63.507812 61.488281 61.421875 63.507812 58.851562 63.507812 L 5.148438 63.507812 C 2.578125 63.507812 0.492188 61.488281 0.492188 58.996094 Z M 0.492188 5.003906 "/>
<path style=" stroke:none;fill-rule:nonzero;fill:rgb(100%,100%,100%);fill-opacity:1;" d="M 14.835938 20.902344 C 18.152344 20.902344 20.21875 18.71875 20.21875 15.988281 C 20.160156 13.195312 18.152344 11.070312 14.898438 11.070312 C 11.640625 11.070312 9.511719 13.195312 9.511719 15.988281 C 9.511719 18.71875 11.578125 20.902344 14.773438 20.902344 Z M 14.835938 20.902344 "/>
<path style=" stroke:none;fill-rule:nonzero;fill:rgb(100%,100%,100%);fill-opacity:1;" d="M 19.59375 53.242188 L 19.59375 24.789062 L 10.074219 24.789062 L 10.074219 53.242188 Z M 19.59375 53.242188 "/>
<path style=" stroke:none;fill-rule:nonzero;fill:rgb(100%,100%,100%);fill-opacity:1;" d="M 24.859375 53.242188 L 34.378906 53.242188 L 34.378906 37.351562 C 34.378906 36.5 34.441406 35.652344 34.691406 35.042969 C 35.378906 33.34375 36.945312 31.585938 39.574219 31.585938 C 43.019531 31.585938 44.398438 34.195312 44.398438 38.019531 L 44.398438 53.242188 L 53.914062 53.242188 L 53.914062 36.925781 C 53.914062 28.1875 49.21875 24.121094 42.957031 24.121094 C 37.824219 24.121094 35.566406 26.972656 34.316406 28.914062 L 34.378906 28.914062 L 34.378906 24.789062 L 24.859375 24.789062 C 24.984375 27.457031 24.859375 53.242188 24.859375 53.242188 Z M 24.859375 53.242188 "/>
</g>
</svg>
