<?xml version="1.0" encoding="UTF-8"?>
<svg xmlns="http://www.w3.org/2000/svg" xmlns:xlink="http://www.w3.org/1999/xlink" width="64px" height="64px" viewBox="0 0 64 73" version="1.1">
<g id="surface1">
<path style=" stroke:none;fill-rule:nonzero;fill:rgb(0%,0%,0%);fill-opacity:1;" d="M 59.429688 4.5625 L 4.558594 4.5625 C 2.042969 4.5625 0 6.628906 0 9.167969 L 0 63.832031 C 0 66.371094 2.042969 68.4375 4.558594 68.4375 L 59.429688 68.4375 C 61.941406 68.4375 64 66.371094 64 63.832031 L 64 9.167969 C 64 6.628906 61.941406 4.5625 59.429688 4.5625 Z M 19.34375 59.3125 L 9.855469 59.3125 L 9.855469 28.828125 L 19.355469 28.828125 L 19.355469 59.3125 Z M 14.601562 24.664062 C 11.558594 24.664062 9.101562 22.199219 9.101562 19.175781 C 9.101562 16.152344 11.558594 13.6875 14.601562 13.6875 C 17.628906 13.6875 20.101562 16.152344 20.101562 19.175781 C 20.101562 22.214844 17.644531 24.664062 14.601562 24.664062 Z M 54.898438 59.3125 L 45.414062 59.3125 L 45.414062 44.484375 C 45.414062 40.949219 45.34375 36.398438 40.484375 36.398438 C 35.542969 36.398438 34.785156 40.25 34.785156 44.226562 L 34.785156 59.3125 L 25.300781 59.3125 L 25.300781 28.828125 L 34.398438 28.828125 L 34.398438 32.992188 L 34.527344 32.992188 C 35.800781 30.597656 38.898438 28.074219 43.515625 28.074219 C 53.113281 28.074219 54.898438 34.390625 54.898438 42.601562 Z M 54.898438 59.3125 "/>
</g>
</svg>
