<?xml version="1.0" encoding="UTF-8"?>
<svg xmlns="http://www.w3.org/2000/svg" xmlns:xlink="http://www.w3.org/1999/xlink" width="64px" height="64px" viewBox="0 0 64 64" version="1.1">
<g id="surface1">
<path style=" stroke:none;fill-rule:nonzero;fill:rgb(0%,0%,0%);fill-opacity:1;" d="M 25.1875 38.1875 C 23.460938 38.1875 22.074219 36.800781 22.074219 35.113281 C 22.074219 33.386719 23.460938 32 25.1875 32 C 26.886719 32 28.261719 33.386719 28.261719 35.113281 C 28.261719 36.8125 26.875 38.1875 25.1875 38.1875 Z M 63 32 C 63 49.125 49.125 63 32 63 C 14.875 63 1 49.125 1 32 C 1 14.875 14.875 1 32 1 C 49.125 1 63 14.875 63 32 Z M 46.460938 26.851562 C 45.289062 26.851562 44.25 27.335938 43.488281 28.101562 C 40.6875 26.164062 36.914062 24.914062 32.726562 24.773438 L 34.898438 14.988281 L 41.824219 16.550781 C 41.824219 18.25 43.210938 19.625 44.898438 19.625 C 46.625 19.625 48.011719 18.210938 48.011719 16.511719 C 48.011719 14.8125 46.625 13.398438 44.898438 13.398438 C 43.6875 13.398438 42.648438 14.125 42.136719 15.125 L 34.488281 13.425781 C 34.113281 13.324219 33.726562 13.601562 33.625 13.976562 L 31.238281 24.773438 C 27.085938 24.949219 23.351562 26.1875 20.550781 28.125 C 19.789062 27.324219 18.710938 26.851562 17.539062 26.851562 C 13.175781 26.851562 11.75 32.710938 15.738281 34.699219 C 15.601562 35.324219 15.523438 35.976562 15.523438 36.636719 C 15.523438 43.210938 22.925781 48.539062 32.023438 48.539062 C 41.164062 48.539062 48.5625 43.210938 48.5625 36.636719 C 48.5625 35.976562 48.488281 35.289062 48.324219 34.664062 C 52.238281 32.664062 50.800781 26.851562 46.460938 26.851562 Z M 37.851562 41.375 C 35.574219 43.648438 28.335938 43.613281 26.148438 41.375 C 25.875 41.101562 25.386719 41.101562 25.113281 41.375 C 24.800781 41.6875 24.800781 42.175781 25.113281 42.449219 C 27.960938 45.300781 36.023438 45.300781 38.886719 42.449219 C 39.199219 42.175781 39.199219 41.6875 38.886719 41.375 C 38.613281 41.101562 38.125 41.101562 37.851562 41.375 Z M 38.8125 32 C 37.113281 32 35.738281 33.386719 35.738281 35.113281 C 35.738281 36.8125 37.125 38.1875 38.8125 38.1875 C 40.539062 38.1875 41.925781 36.800781 41.925781 35.113281 C 41.925781 33.386719 40.550781 32 38.8125 32 Z M 38.8125 32 "/>
</g>
</svg>
