<?xml version="1.0" encoding="UTF-8"?>
<svg xmlns="http://www.w3.org/2000/svg" xmlns:xlink="http://www.w3.org/1999/xlink" width="64px" height="64px" viewBox="0 0 64 64" version="1.1">
<g id="surface1">
<path style=" stroke:none;fill-rule:nonzero;fill:rgb(100%,27.058824%,0%);fill-opacity:1;" d="M 63.507812 32 C 63.507812 49.402344 49.402344 63.507812 32 63.507812 C 14.597656 63.507812 0.492188 49.402344 0.492188 32 C 0.492188 14.597656 14.597656 0.492188 32 0.492188 C 49.402344 0.492188 63.507812 14.597656 63.507812 32 Z M 63.507812 32 "/>
<path style=" stroke:none;fill-rule:nonzero;fill:rgb(100%,100%,100%);fill-opacity:1;" d="M 53.015625 32 C 52.917969 29.460938 50.789062 27.480469 48.242188 27.566406 C 47.117188 27.605469 46.042969 28.070312 45.230469 28.84375 C 41.640625 26.398438 37.429688 25.058594 33.097656 24.964844 L 35.140625 15.136719 L 41.882812 16.554688 C 42.070312 18.285156 43.621094 19.539062 45.351562 19.351562 C 47.085938 19.164062 48.335938 17.613281 48.148438 15.882812 C 47.960938 14.152344 46.410156 12.898438 44.679688 13.085938 C 43.683594 13.1875 42.792969 13.765625 42.300781 14.628906 L 34.578125 13.085938 C 34.050781 12.96875 33.527344 13.296875 33.410156 13.828125 C 33.410156 13.835938 33.410156 13.835938 33.410156 13.84375 L 31.082031 24.777344 C 26.699219 24.847656 22.429688 26.195312 18.796875 28.65625 C 16.945312 26.917969 14.03125 27.003906 12.292969 28.859375 C 10.554688 30.707031 10.640625 33.621094 12.496094 35.359375 C 12.859375 35.695312 13.273438 35.988281 13.734375 36.191406 C 13.703125 36.652344 13.703125 37.113281 13.734375 37.578125 C 13.734375 44.632812 21.960938 50.375 32.101562 50.375 C 42.242188 50.375 50.46875 44.640625 50.46875 37.578125 C 50.5 37.113281 50.5 36.652344 50.46875 36.191406 C 52.050781 35.398438 53.046875 33.769531 53.015625 32 Z M 21.503906 35.15625 C 21.503906 33.417969 22.921875 32 24.660156 32 C 26.398438 32 27.816406 33.417969 27.816406 35.15625 C 27.816406 36.894531 26.398438 38.3125 24.660156 38.3125 C 22.914062 38.296875 21.503906 36.894531 21.503906 35.15625 Z M 39.808594 43.945312 L 39.808594 43.820312 C 37.570312 45.503906 34.828125 46.363281 32.023438 46.246094 C 29.21875 46.363281 26.476562 45.503906 24.238281 43.820312 C 23.941406 43.457031 23.996094 42.917969 24.355469 42.621094 C 24.667969 42.363281 25.113281 42.363281 25.4375 42.621094 C 27.332031 44.007812 29.640625 44.710938 31.992188 44.601562 C 34.339844 44.726562 36.660156 44.054688 38.578125 42.683594 C 38.921875 42.347656 39.488281 42.355469 39.824219 42.699219 C 40.160156 43.042969 40.152344 43.605469 39.808594 43.945312 Z M 39.378906 38.539062 C 39.324219 38.539062 39.277344 38.539062 39.222656 38.539062 L 39.246094 38.421875 C 37.507812 38.421875 36.089844 37.003906 36.089844 35.265625 C 36.089844 33.527344 37.507812 32.109375 39.246094 32.109375 C 40.984375 32.109375 42.402344 33.527344 42.402344 35.265625 C 42.472656 37.003906 41.117188 38.46875 39.378906 38.539062 Z M 39.378906 38.539062 "/>
</g>
</svg>
