<?xml version="1.0" encoding="UTF-8"?>
<svg xmlns="http://www.w3.org/2000/svg" xmlns:xlink="http://www.w3.org/1999/xlink" width="64px" height="64px" viewBox="0 0 64 64" version="1.1">
<g id="surface1">
<path style=" stroke:none;fill-rule:nonzero;fill:rgb(0%,0%,0%);fill-opacity:1;" d="M 61.933594 15.4375 C 59.832031 16.367188 57.574219 16.988281 55.195312 17.28125 C 57.617188 15.84375 59.476562 13.554688 60.351562 10.84375 C 58.085938 12.171875 55.578125 13.148438 52.90625 13.660156 C 50.777344 11.402344 47.734375 10 44.367188 10 C 37.894531 10 32.648438 15.199219 32.648438 21.609375 C 32.648438 22.519531 32.753906 23.402344 32.953125 24.261719 C 23.21875 23.769531 14.585938 19.144531 8.808594 12.117188 C 7.792969 13.835938 7.222656 15.84375 7.222656 17.964844 C 7.222656 21.996094 9.285156 25.546875 12.433594 27.636719 C 10.511719 27.578125 8.703125 27.042969 7.121094 26.1875 C 7.121094 26.222656 7.121094 26.273438 7.121094 26.320312 C 7.121094 31.953125 11.160156 36.644531 16.515625 37.714844 C 15.535156 37.980469 14.503906 38.128906 13.4375 38.128906 C 12.679688 38.128906 11.941406 38.042969 11.226562 37.914062 C 12.71875 42.519531 17.046875 45.882812 22.171875 45.984375 C 18.160156 49.09375 13.109375 50.953125 7.617188 50.953125 C 6.667969 50.953125 5.742188 50.898438 4.824219 50.789062 C 10.011719 54.074219 16.171875 56 22.785156 56 C 44.335938 56 56.121094 38.304688 56.121094 22.953125 C 56.121094 22.449219 56.105469 21.949219 56.082031 21.453125 C 58.382812 19.828125 60.367188 17.78125 61.933594 15.4375 "/>
</g>
</svg>
