<?xml version="1.0" encoding="UTF-8"?>
<svg xmlns="http://www.w3.org/2000/svg" xmlns:xlink="http://www.w3.org/1999/xlink" width="64px" height="64px" viewBox="0 0 64 64" version="1.1">
<defs>
<linearGradient id="linear0" gradientUnits="userSpaceOnUse" x1="10.341" y1="8.312" x2="40.798" y2="38.769" gradientTransform="matrix(1.333333,0,0,1.333333,0,0)">
<stop offset="0" style="stop-color:rgb(16.470588%,64.313725%,95.686275%);stop-opacity:1;"/>
<stop offset="1" style="stop-color:rgb(0%,47.843137%,85.098039%);stop-opacity:1;"/>
</linearGradient>
</defs>
<g id="surface1">
<path style=" stroke:none;fill-rule:nonzero;fill:url(#linear0);" d="M 61.472656 14.691406 C 59.40625 15.609375 57.179688 16.21875 54.835938 16.507812 C 57.21875 15.09375 59.054688 12.835938 59.917969 10.164062 C 57.683594 11.472656 55.210938 12.433594 52.582031 12.941406 C 50.480469 10.714844 47.484375 9.332031 44.164062 9.332031 C 37.785156 9.332031 32.613281 14.457031 32.613281 20.777344 C 32.613281 21.671875 32.71875 22.542969 32.914062 23.386719 C 23.320312 22.90625 14.8125 18.34375 9.117188 11.421875 C 8.117188 13.113281 7.554688 15.09375 7.554688 17.183594 C 7.554688 21.15625 9.589844 24.652344 12.6875 26.714844 C 10.796875 26.65625 9.015625 26.128906 7.453125 25.285156 C 7.453125 25.320312 7.453125 25.371094 7.453125 25.417969 C 7.453125 30.96875 11.4375 35.59375 16.714844 36.644531 C 15.75 36.90625 14.730469 37.054688 13.679688 37.054688 C 12.933594 37.054688 12.207031 36.96875 11.503906 36.84375 C 12.972656 41.378906 17.234375 44.695312 22.285156 44.792969 C 18.332031 47.859375 13.355469 49.691406 7.945312 49.691406 C 7.007812 49.691406 6.09375 49.640625 5.191406 49.53125 C 10.308594 52.769531 16.378906 54.667969 22.894531 54.667969 C 44.128906 54.667969 55.75 37.226562 55.75 22.097656 C 55.75 21.601562 55.734375 21.109375 55.710938 20.621094 C 57.976562 19.019531 59.929688 17 61.472656 14.691406 "/>
</g>
</svg>
